<svg width="24" height="24" viewBox="0 0 24 24" fill="none" xmlns="http://www.w3.org/2000/svg">
<g clip-path="url(#clip0_221_14681)">
<path fill-rule="evenodd" clip-rule="evenodd" d="M16.724 3.03C16.3489 2.65506 15.8403 2.44443 15.31 2.44443C14.7796 2.44443 14.271 2.65506 13.896 3.03L3.58197 13.344C3.20687 13.719 2.99608 14.2276 2.99597 14.758V19.991C2.99597 20.548 3.44897 21.001 4.00597 21.001L20 21C20.2652 21 20.5195 20.8946 20.7071 20.7071C20.8946 20.5196 21 20.2652 21 20C21 19.7348 20.8946 19.4804 20.7071 19.2929C20.5195 19.1054 20.2652 19 20 19H12.068L20.967 10.101C21.3419 9.72594 21.5525 9.21733 21.5525 8.687C21.5525 8.15667 21.3419 7.64806 20.967 7.273L16.724 3.03ZM9.23997 19L19.553 8.687L15.31 4.444L4.99597 14.758V19H9.23997Z" fill="black"/>
</g>
<defs>
<clipPath id="clip0_221_14681">
<rect width="24" height="24" fill="white"/>
</clipPath>
</defs>
</svg>
